# AST/ASF file generated using VICON BodyLanguage
# -----------------------------------------------
:version 1.10
:name VICON
:units
  mass 1.0
  length 0.45
  angle deg
:documentation
   .ast/.asf automatically generated from VICON data using
   VICON BodyBuilder and BodyLanguage model FoxedUp or BRILLIANT.MOD
:root
   order TX TY TZ RX RY RZ
   axis XYZ
   position 0 0 0  
   orientation 0 0 0 
:bonedata
  begin
     id 1 
     name lhipjoint
     direction 0.575328 -0.747301 0.332475 
     length 2.40933 
     axis 0 0 0  XYZ
  end
  begin
     id 2 
     name lfemur
     direction 0.34202 -0.939693 0  
     length 7.31453  
     axis 0 0 20  XYZ
    dof rx ry rz
    limits (-160.0 20.0)
           (-70.0 70.0)
           (-60.0 70.0)
  end
  begin
     id 3 
     name ltibia
     direction 0.34202 -0.939693 0   
     length 7.82185   
     axis 0 0 20   XYZ
    dof rx
    limits (-10.0 170.0)
  end
  begin
     id 4 
     name lfoot
     direction 0.0795993 -0.218697 0.972541   
     length 2.19173   
     axis -90 7.62852e-016 20   XYZ
    dof rx rz
    limits (-45.0 90.0)
           (-70.0 20.0)
  end
  begin
     id 5 
     name ltoes
     direction 1.53537e-011 -4.21894e-011 1   
     length 1.10023   
     axis -90 7.62852e-016 20   XYZ
    dof rx
    limits (-90.0 20.0)
  end
  begin
     id 6 
     name rhipjoint
     direction -0.513884 -0.783789 0.348708   
     length 2.29716  
     axis 0 0 0  XYZ 
  end
  begin
     id 7 
     name rfemur
     direction -0.34202 -0.939693 0   
     length 7.59573   
     axis 0 0 -20   XYZ
    dof rx ry rz
    limits (-160.0 20.0)
           (-70.0 70.0)
           (-70.0 60.0)
  end
  begin
     id 8 
     name rtibia
     direction -0.34202 -0.939693 0   
     length 7.66402   
     axis 0 0 -20   XYZ
    dof rx
    limits (-10.0 170.0)
 end
 begin
     id 9 
     name rfoot
     direction -0.137793 -0.378584 0.915253   
     length 2.27056  
     axis -90 -7.62852e-016 -20   XYZ
    dof rx rz
    limits (-45.0 90.0)
           (-20.0 70.0)
  end
  begin
     id 10 
     name rtoes
     direction -1.53493e-011 -4.22159e-011 1   
     length 1.11766   
     axis -90 -7.62852e-016 -20   XYZ
    dof rx
    limits (-90.0 20.0)
  end
  begin
     id 11 
     name lowerback
     direction -0.00732775 0.998356 -0.05685   
     length 2.16513   
     axis 0 0 0   XYZ
    dof rx ry rz
    limits (-20.0 45.0)
           (-30.0 30.0)
           (-30.0 30.0)
  end
  begin
     id 12 
     name upperback
     direction 0.0218081 0.999627 -0.0164647   
     length 2.16755   
     axis 0 0 0   XYZ
    dof rx ry rz
    limits (-20.0 45.0)
           (-30.0 30.0)
           (-30.0 30.0)
  end
  begin
     id 13 
     name thorax
     direction 0.02365 0.999661 0.0108914   
     length 2.16932   
     axis 0 0 0   XYZ
    dof rx ry rz
    limits (-20.0 45.0)
           (-30.0 30.0)
           (-30.0 30.0)
  end
  begin
     id 14 
     name lowerneck
     direction -0.0523929 0.978385 0.200044   
     length 1.63877   
     axis 0 0 0   XYZ
    dof rx ry rz
    limits (-20.0 45.0)
           (-30.0 30.0)
           (-30.0 30.0)
  end
  begin
     id 15 
     name upperneck
     direction 0.0448674 0.981321 -0.187074   
     length 1.69014   
     axis 0 0 0   XYZ
    dof rx ry rz
    limits (-20.0 45.0)
           (-30.0 30.0)
           (-30.0 30.0)
  end
  begin
     id 16
     name head
     direction 0.0199089 0.996118 -0.0857429  
     length 1.70094  
     axis 0 0 0   XYZ
    dof rx ry rz
    limits (-20.0 45.0)
           (-30.0 30.0)
           (-30.0 30.0)
  end
  begin
     id 17 
     name lclavicle
     direction 0.940366 0.30191 -0.156722  
     length 3.37521  
     axis 0 0 0   XYZ
    dof ry rz
    limits (-20.0 10.0)
           (0.0 20.0)
  end
  begin
     id 18 
     name lhumerus
     direction 1 -4.4897e-011 -1.7911e-027   
     length 5.25287   
     axis 180 -30 -90   XYZ
    dof rx ry rz
    limits (-60.0 90.0)
           (-90.0 90.0)
           (-90.0 90.0)
  end
  begin
     id 19
     name lradius
     direction 1 -4.48951e-011 1.04424e-027   
     length 3.51014   
     axis 180 -30 -90   XYZ
    dof rx
    limits (-10.0 170.0)
  end
  begin
     id 20
     name lwrist
     direction 1 -4.48997e-011 -9.5942e-028   
     length 1.75507   
     axis 8.48502e-016 90 90   XYZ
    dof ry
    limits (-180.0 0.0)
 end
  begin
     id 21 
     name lhand
     direction 1 -4.48831e-011 -1.90777e-027   
     length 0.706179   
     axis 1.22306e-015 90 90   XYZ
    dof rx rz
    limits (-90.0 90.0)
           (-45.0 45.0)
  end
  begin
     id 22 
     name lfingers
     direction 1 -4.49108e-011 -3.85244e-027   
     length 0.569339   
     axis 2.44611e-015 90 90   XYZ
    dof rx
    limits (0.0 90.0)
  end
  begin
     id 23
     name lthumb
     direction 0.707107 -6.34953e-011 0.707107   
     length 0.817461   
     axis -90 45 -1.62303e-014   XYZ
    dof rx rz
    limits (-45.0 45.0)
           (-45.0 45.0)
  end
  begin
     id 24 
     name rclavicle
     direction -0.905329 0.382405 -0.184787   
     length 3.30787  
     axis 0 0 0   XYZ 
    dof ry rz
    limits (-10.0 20.0)
           (-20.0 0.0)
  end
  begin
     id 25 
     name rhumerus
     direction -1 -4.48953e-011 -9.15316e-029  
     length 5.28721   
     axis 180 30 90   XYZ
    dof rx ry rz
    limits (-90.0 60.0)
           (-90.0 90.0)
           (-90.0 90.0)
  end
  begin
     id 26 
     name rradius
     direction -1 -4.48987e-011 9.37824e-028   
     length 3.50544   
     axis 180 30 90   XYZ
    dof rx
    limits (-10.0 170.0)
  end
  begin
     id 27 
     name rwrist
     direction -1 -4.48967e-011 -9.58414e-028   
     length 1.75272   
     axis 8.48502e-016 -90 -90   XYZ
    dof ry
    limits (-180.0 0.0)
  end
  begin
     id 28
     name rhand
     direction -1 -4.48904e-011 -1.91266e-027   
     length 0.884996   
     axis 1.22306e-015 -90 -90   XYZ
    dof rx rz
    limits (-90.0 90.0)
           (-45.0 45.0)
  end
  begin
     id 29
     name rfingers
     direction -1 -4.4909e-011 -3.85015e-027   
     length 0.713507   
     axis 2.44611e-015 -90 -90   XYZ
    dof rx
    limits (0.0 90.0)
  end
  begin
     id 30
     name rthumb
     direction -0.707107 -6.34853e-011 0.707107   
     length 1.02446   
     axis -90 -45 1.62303e-014   XYZ
    dof rx rz
    limits (-45.0 45.0)
           (-45.0 45.0)
  end
:hierarchy
  begin
    root lhipjoint rhipjoint lowerback
    lhipjoint lfemur
    lfemur ltibia
    ltibia lfoot
    lfoot ltoes
    rhipjoint rfemur
    rfemur rtibia
    rtibia rfoot
    rfoot rtoes
    lowerback upperback
    upperback thorax
    thorax lowerneck lclavicle rclavicle
    lowerneck upperneck
    upperneck head
    lclavicle lhumerus
    lhumerus lradius
    lradius lwrist
    lwrist lhand lthumb
    lhand lfingers
    rclavicle rhumerus
    rhumerus rradius
    rradius rwrist
    rwrist rhand rthumb
    rhand rfingers
  end

#!OML:ASF F:\twosubjects\two\Thursday\Session 1\justin.ASF
:FULLY-SPECIFIED
:DEGREES
1
root 10.562 17.8003 -12.0966 -2.22441 -54.7391 7.23715
lowerback -2.66205 0.189612 -5.60146
upperback -0.0750083 0.418412 0.160379
thorax 1.37558 0.170997 3.32342
lowerneck -20.8395 -2.91924 -9.25895
upperneck 24.6551 -2.80565 5.92006
head 11.7517 -1.42171 3.30541
rclavicle 7.58364e-014 7.95139e-015
rhumerus -35.4119 34.5542 -100.894
rradius 99.559
rwrist 8.68736
rhand -22.973 28.995
rfingers 7.12502
rthumb 3.46915 -0.956534
lclavicle 7.58364e-014 7.95139e-015
lhumerus -39.0191 -33.1987 103.77
lradius 87.0076
lwrist -14.6137
lhand -14.9924 34.9089
lfingers 7.12502
lthumb 11.1721 64.5914
rfemur -6.16305 -2.03751 5.41918
rtibia 22.338
rfoot -15.1405 -13.2578
rtoes -20.1247
lfemur -3.1891 8.57451 -26.9844
ltibia 13.9977
lfoot -11.4309 5.97467
ltoes -9.84097
2
root 10.5604 17.8014 -12.1026 -2.22291 -54.727 7.23237
lowerback -2.60952 0.186673 -5.53802
upperback -0.0931355 0.409743 0.0516738
thorax 1.32942 0.168849 3.17466
lowerneck -21.1498 -2.83949 -9.15361
upperneck 25.033 -2.7838 6.1536
head 11.9573 -1.37445 3.38979
rclavicle 2.88238e-014 -4.37326e-015
rhumerus -35.4341 34.4012 -101.054
rradius 99.6072
rwrist 8.59611
rhand -23.2465 28.6435
rfingers 7.12502
rthumb 3.20504 -1.31213
lclavicle 2.88238e-014 -4.37326e-015
lhumerus -39.3617 -32.9495 103.699
lradius 87.4589
lwrist -14.8196
lhand -14.9242 34.8029
lfingers 7.12502
lthumb 11.2379 64.4819
rfemur -6.11155 -1.98067 5.46335
rtibia 22.2688
rfoot -15.1303 -13.3428
rtoes -20.316
lfemur -3.33502 8.83087 -26.9328
ltibia 14.1899
lfoot -11.5633 5.7704
ltoes -9.78018
3
root 10.5579 17.806 -12.104 -1.9405 -54.7384 6.96175
lowerback -2.67854 0.173945 -5.35238
upperback -0.0966471 0.391418 0.0650871
thorax 1.36735 0.159952 3.08403
lowerneck -21.2824 -2.80023 -9.057
upperneck 25.1364 -2.72975 6.07601
head 12.0159 -1.35087 3.35549
rclavicle 2.95692e-014 -3.97569e-015
rhumerus -35.4672 34.3164 -101.044
rradius 99.6995
rwrist 8.54677
rhand -23.4332 28.5057
rfingers 7.12502
rthumb 3.02474 -1.4526
lclavicle 2.95692e-014 -3.97569e-015
lhumerus -39.4558 -32.8127 103.654
lradius 87.8275
lwrist -14.8563
lhand -14.862 34.9846
lfingers 7.12502
lthumb 11.2978 64.6604
rfemur -6.12091 -1.87046 5.64453
rtibia 22.2499
rfoot -15.2636 -13.2925
rtoes -19.6042
lfemur -3.5247 9.0449 -26.7394
ltibia 14.35
lfoot -11.7603 5.47783
ltoes -10.049
4
root 10.5542 17.8083 -12.1043 -1.47996 -54.6883 6.54604
lowerback -2.84476 0.148472 -5.18462
upperback -0.0847984 0.362243 0.10957
thorax 1.47624 0.143389 3.03575
lowerneck -21.4858 -2.7351 -8.8951
upperneck 25.2479 -2.68039 6.08337
head 12.092 -1.31075 3.34244
rclavicle -2.85256e-014 9.34288e-015
rhumerus -35.4147 34.1348 -101.005
rradius 99.7369
rwrist 8.41091
rhand -23.4666 28.5279
rfingers 7.12502
rthumb 2.99248 -1.43088
lclavicle -2.85256e-014 9.34288e-015
lhumerus -39.0318 -33.1643 103.56
lradius 87.521
lwrist -14.5898
lhand -15.2293 35.1617
lfingers 7.12502
lthumb 10.9436 64.8565
rfemur -6.20363 -1.88294 5.92262
rtibia 22.2631
rfoot -15.3223 -13.2855
rtoes -19.3225
lfemur -3.71876 9.24365 -26.4656
ltibia 14.5544
lfoot -11.8118 5.33888
ltoes -9.98886
5
root 10.553 17.8116 -12.1115 -1.18493 -54.6958 6.28733
lowerback -2.92397 0.267121 -5.06713
upperback -0.0657579 0.523096 0.00102495
thorax 1.52766 0.223063 2.86481
lowerneck -21.5687 -2.78047 -8.59428
upperneck 25.231 -2.88369 6.21651
head 12.1164 -1.35251 3.30852
rclavicle 9.87711e-015 3.97569e-015
rhumerus -35.1845 33.5074 -100.97
rradius 99.735
rwrist 8.3229
rhand -23.4315 28.522
rfingers 7.12502
rthumb 3.02639 -1.43629
lclavicle 9.87711e-015 3.97569e-015
lhumerus -38.3981 -34.3002 103.41
lradius 86.8652
lwrist -14.2191
lhand -15.6853 35.1563
lfingers 7.12502
lthumb 10.5038 64.8739
rfemur -6.32989 -1.76768 6.13286
rtibia 22.3169
rfoot -15.4003 -13.3903
rtoes -18.9098
lfemur -3.91491 9.18568 -26.2904
ltibia 14.798
lfoot -11.7106 5.55342
ltoes -9.99852
6
root 10.5579 17.8303 -12.1534 -0.239678 -54.7072 5.72509
lowerback -3.04779 0.264027 -5.14816
upperback -0.282644 0.519667 0.198255
thorax 1.37134 0.228424 3.11376
lowerneck -21.2575 -2.81522 -8.78814
upperneck 24.9551 -2.91238 6.32385
head 11.9551 -1.37053 3.37031
rclavicle -4.04527e-014 -4.96962e-015
rhumerus -35.1265 33.3603 -100.791
rradius 99.7514
rwrist 8.27356
rhand -23.442 28.5014
rfingers 7.12502
rthumb 3.01626 -1.45702
lclavicle -4.04527e-014 -4.96962e-015
lhumerus -38.051 -34.7143 103.471
lradius 86.4968
lwrist -14.2705
lhand -15.7299 35.2179
lfingers 7.12502
lthumb 10.4608 64.9376
rfemur -6.98029 -1.42341 6.73927
rtibia 22.4251
rfoot -15.44 -13.828
rtoes -18.1883
lfemur -4.67762 10.1085 -25.782
ltibia 14.8909
lfoot -11.814 4.48796
ltoes -9.97839
7
root 10.5678 17.8401 -12.1874 0.232835 -54.4834 5.60879
lowerback -3.04105 0.115233 -5.40452
upperback -0.461896 0.321728 0.371924
thorax 1.19849 0.136082 3.42878
lowerneck -20.9763 -2.78104 -8.92213
upperneck 24.6065 -2.77239 6.14305
head 11.7525 -1.34215 3.33802
rclavicle 1.21756e-015 -9.93923e-016
rhumerus -35.1277 33.4519 -100.61
rradius 99.7351
rwrist 8.19288
rhand -23.5514 28.5865
rfingers 7.12502
rthumb 2.91056 -1.37337
lclavicle 1.21756e-015 -9.93923e-016
lhumerus -37.8907 -34.5263 103.529
lradius 86.3676
lwrist -14.6147
lhand -15.8673 35.1281
lfingers 7.12502
lthumb 10.3282 64.8545
rfemur -7.47095 -1.30499 6.96305
rtibia 22.5881
rfoot -15.4757 -14.2256
rtoes -17.9636
lfemur -5.24832 10.5528 -25.6457
ltibia 14.8602
lfoot -11.8336 3.68347
ltoes -9.21639
8
root 10.557 17.8266 -12.1767 -0.717585 -54.926 6.23594
lowerback -2.84556 0.32103 -5.63743
upperback -0.275036 0.599893 0.118278
thorax 1.25429 0.268791 3.30729
lowerneck -20.9381 -2.77379 -8.42345
upperneck 24.4218 -2.86395 5.92024
head 11.6699 -1.36162 3.15013
rclavicle 2.85753e-015 9.14409e-015
rhumerus -35.0129 32.9935 -100.709
rradius 99.7327
rwrist 8.20931
rhand -23.7528 28.58
rfingers 7.12502
rthumb 2.7161 -1.38245
lclavicle 2.85753e-015 9.14409e-015
lhumerus -37.8597 -34.6903 103.332
lradius 86.4255
lwrist -14.9513
lhand -16.1085 34.8542
lfingers 7.12502
lthumb 10.0955 64.592
rfemur -7.16713 -1.0121 6.5229
rtibia 22.7484
rfoot -15.5367 -14.0484
rtoes -18.4251
lfemur -4.61097 10.7079 -25.9701
ltibia 14.7814
lfoot -11.9064 4.08731
ltoes -9.07421
9
root 10.551 17.8181 -12.1713 -1.37778 -55.1718 6.79503
lowerback -2.72497 0.407386 -5.90728
upperback -0.239195 0.717778 -0.055177
thorax 1.2109 0.326697 3.28266
lowerneck -20.8263 -2.69044 -8.35229
upperneck 24.3808 -2.8702 6.23327
head 11.6353 -1.31905 3.25443
rclavicle -9.48141e-014 5.36719e-015
rhumerus -34.9821 32.7385 -100.829
rradius 99.7442
rwrist 8.12782
rhand -24.0821 28.5631
rfingers 7.12502
rthumb 2.39804 -1.40318
lclavicle -9.48141e-014 5.36719e-015
lhumerus -37.9832 -34.7591 103.255
lradius 86.6288
lwrist -14.9852
lhand -16.3636 35.1749
lfingers 7.12502
lthumb 9.84935 64.9245
rfemur -7.09649 -0.930518 6.15153
rtibia 22.9103
rfoot -15.5316 -13.9193
rtoes -18.893
lfemur -4.23178 10.5697 -26.2889
ltibia 14.6547
lfoot -11.8734 4.45395
ltoes -8.96244
10
root 10.5516 17.8174 -12.1696 -1.62009 -55.1265 7.07061
lowerback -2.71245 0.410894 -6.05124
upperback -0.253847 0.725081 -0.0399106
thorax 1.18606 0.330603 3.37927
lowerneck -20.7998 -2.65455 -8.79167
upperneck 24.4217 -2.7942 6.65317
head 11.6524 -1.27384 3.50124
rclavicle 5.56224e-014 4.17448e-015
rhumerus -34.8955 32.6399 -100.559
rradius 99.7103
rwrist 7.85278
rhand -24.4954 28.9333
rfingers 7.12502
rthumb 1.99895 -1.03706
lclavicle 5.56224e-014 4.17448e-015
lhumerus -38.059 -34.9368 103.467
lradius 86.8376
lwrist -14.7314
lhand -16.9691 36
lfingers 7.12502
lthumb 9.26517 65.7764
rfemur -7.1543 -1.00715 5.95394
rtibia 23.0729
rfoot -15.6038 -13.8569
rtoes -18.8612
lfemur -4.11857 10.0823 -26.4726
ltibia 14.5104
lfoot -11.7951 4.75844
ltoes -8.65274
